PathFileType	4	(X/Y/Z)	D:\TRACE\spot_10-12-23\spot_body_motion_3_5-v60.trc
DataRate	CameraRate	NumFrames	NumMarkers	Units	OrigDataRate	OrigDataStartFrame	OrigNumFrames
100.00	100.00	      39	9	mm	100.00	6126	      7000
Frame#	Time	front left toe			Front right toe			aft left toe			aft right toe			Arm			FL body			FR body			AL Body			AR Body			
		X1	Y1	Z1	X2	Y2	Z2	X3	Y3	Z3	X4	Y4	Z4	X5	Y5	Z5	X6	Y6	Z6	X7	Y7	Z7	X8	Y8	Z8	X9	Y9	Z9	

6126	61.250	-257.15277	17.81739	146.69836	271.20828	26.03670	25.92616	-195.41597	-4.63001	606.53967	345.79880	-6.31800	555.38922	-18.80873	816.70056	-59.68494	-96.94405	551.63776	-39.96049	53.69955	560.21210	-64.26522	36.37755	523.11261	833.75098	185.64578	524.31158	812.52563	
6127	61.260	-257.22076	17.83630	146.63495	271.03210	26.04753	25.81357	-195.52403	-4.45647	606.43323	345.56903	-6.05358	555.45111	-19.74491	816.82947	-60.43401	-97.76974	551.57080	-40.41765	52.42263	560.24750	-64.77353	34.94755	523.07642	832.48584	184.78700	524.46429	811.70947	
6128	61.270	-257.36063	17.82724	146.55249	270.96286	26.26507	25.87138	-195.71799	-4.24688	606.39020	345.26825	-5.87304	555.44153	-20.94999	816.99628	-61.28809	-98.89046	551.80853	-41.40145	51.66973	560.60101	-65.68331	34.23075	523.36707	832.46008	183.78093	524.45892	811.10077	
6129	61.280	-257.63074	17.81296	146.46429	270.72495	26.32128	25.79555	-195.91734	-4.11577	606.38110	345.10022	-5.76772	555.28729	-21.73184	817.04297	-61.99364	-99.99477	552.01202	-42.12006	50.64462	560.29230	-66.02682	33.05267	523.02985	831.28766	182.65639	524.66461	810.00293	
6130	61.290	-257.85760	17.73589	146.38626	270.62924	26.35300	25.68962	-196.06676	-4.08274	606.38147	344.79211	-5.60057	555.24597	-22.95743	817.15851	-62.87282	-101.14737	552.18335	-42.99555	49.66097	560.47015	-66.67577	31.96446	522.93054	830.48071	181.91112	524.46100	809.46875	
6131	61.300	-257.94745	17.67072	146.31993	270.44415	26.41335	25.57199	-196.19691	-3.98059	606.34839	344.55090	-5.45180	555.24164	-23.98062	817.26160	-63.58835	-102.26777	552.29651	-43.95165	48.42398	560.60583	-68.30170	31.52372	522.61438	828.90723	180.35847	524.36066	808.25366	
6132	61.310	-258.01205	17.68254	146.26384	270.22958	26.52445	25.44098	-196.29047	-3.86440	606.28687	344.63724	-5.57346	555.13062	-25.01167	817.44281	-64.50911	-103.55174	552.58893	-44.69205	46.84671	560.68073	-68.67383	30.32951	522.45856	827.75989	179.39133	524.11475	807.13019	
6133	61.320	-258.13055	17.69394	146.18570	270.04150	26.49994	25.33506	-196.35878	-3.74344	606.24078	344.44507	-5.19810	555.19537	-26.23794	817.63641	-65.39439	-104.95103	552.71613	-45.86900	45.80645	560.78687	-70.16429	29.36774	522.63611	826.93903	178.14940	523.92285	806.58984	
6134	61.330	-258.38651	17.56929	146.07034	269.92703	26.40682	25.12807	-196.47401	-3.67157	606.18542	344.15726	-4.98803	555.00006	-27.30168	817.80298	-66.48129	-106.25204	552.79413	-46.72240	44.21812	561.17645	-71.26693	27.93021	522.55322	825.87622	177.06056	523.99225	805.27997	
6135	61.340	-258.66855	17.41576	146.06114	269.68170	26.47274	25.02727	-196.69759	-3.62705	606.21906	343.89737	-4.66070	554.93707	-28.55018	817.89508	-67.52273	-107.73170	553.07916	-47.77395	43.00230	560.83301	-71.76993	26.88944	522.37201	825.36652	175.55084	523.80756	804.02679	
6136	61.350	-258.90768	17.27110	145.99435	269.39685	26.48797	24.85818	-196.90596	-3.55989	606.19647	343.70352	-4.43674	554.92444	-29.88205	817.90326	-68.58837	-108.99444	553.15009	-48.77669	41.58304	561.05591	-73.15223	24.78459	522.82355	824.00458	174.40721	523.49432	803.14948	
6137	61.360	-259.04202	17.37166	145.80890	269.27148	26.70071	24.91288	-197.14180	-3.40576	606.19128	343.52142	-4.18458	554.90936	-30.81556	818.05902	-69.68523	-110.59518	553.35413	-50.08857	40.15016	560.94812	-74.04960	23.58294	522.66815	822.60217	172.63477	523.44714	801.97473	
6138	61.370	-259.21765	17.35828	145.65652	269.16745	26.73452	24.78884	-197.30234	-3.25557	606.19171	343.36813	-4.34411	554.74017	-32.21504	818.01056	-70.93555	-112.26269	553.65259	-51.28619	38.40531	561.32715	-75.82629	21.90536	522.99304	822.50928	171.45145	523.36786	800.81360	
6139	61.380	-259.38095	17.30856	145.52458	269.03183	26.79754	24.73270	-197.44914	-3.15491	606.15509	343.36102	-3.83357	554.65363	-33.81748	818.16791	-72.20954	-113.71371	553.73706	-52.49586	36.59795	561.16089	-76.58984	20.10691	522.80829	820.74866	169.99763	523.22260	799.46448	
6140	61.390	-259.45178	17.22191	145.46989	268.88455	26.85628	24.62803	-197.67264	-3.06160	606.18127	343.20782	-3.64390	554.66992	-35.30064	818.41461	-73.54710	-115.43047	553.88928	-53.94377	35.10705	561.33142	-78.56273	19.27728	522.54626	819.03918	168.18930	522.99927	798.03503	
6141	61.400	-259.47345	17.18155	145.32880	268.61844	27.21070	24.45922	-197.79996	-3.00422	606.17596	343.04068	-3.45914	554.55865	-36.80296	818.33722	-75.03288	-117.33029	553.90295	-55.32284	33.19748	561.30530	-80.00238	17.36046	522.24951	817.08075	166.67577	522.84131	796.72797	
6142	61.410	-259.51062	17.11345	145.24510	268.67188	27.07189	24.52384	-197.84125	-2.80705	606.17950	343.02042	-3.44607	554.53613	-38.75530	818.44598	-76.56293	-119.25156	553.95361	-56.92940	31.20029	561.33502	-81.52265	15.41466	522.16980	815.78729	164.81116	522.78912	794.86487	
6143	61.420	-259.46002	17.54857	144.66280	268.77420	26.91804	24.61653	-197.64880	-2.44815	606.22870	343.44687	-3.62815	555.16876	-40.50921	818.43414	-78.14585	-121.34604	553.97089	-58.62764	29.24949	560.98840	-82.63613	13.46345	521.94330	813.93958	162.54279	522.31274	793.09094	
6144	61.430	-259.55927	16.80677	144.74063	268.22342	26.72252	23.82741	-198.07956	-2.91374	605.79449	343.55649	-1.85600	553.41986	-42.88662	818.32837	-79.72295	-123.41790	553.99048	-60.31773	27.09728	561.15491	-84.51035	11.15709	522.30133	813.18091	160.60718	521.98627	791.62640	
6145	61.440	-260.19000	16.73444	144.44775	267.15417	27.23794	23.67053	-198.98935	-3.78185	606.00714	346.84799	6.23256	555.42999	-45.61042	818.55035	-81.55624	-126.28622	554.55121	-62.06516	24.43307	561.20593	-86.45005	10.28823	520.85004	810.42358	159.35786	520.57330	789.15417	
6146	61.450	-261.00409	17.20185	144.65158	266.67209	27.08613	22.69459	-199.33266	-4.33392	606.35345	338.02448	14.33800	564.80731	-47.25508	818.78503	-83.15930	-129.13217	555.18591	-63.70177	21.23470	561.69318	-89.03606	9.27457	520.33478	808.52502	157.82687	519.33826	787.06836	
6147	61.460	-260.72113	17.10834	144.22147	265.17886	26.90247	22.27766	-198.89911	-3.53028	606.12903	339.72061	25.57497	568.13434	-48.64027	819.17975	-84.87052	-131.84262	555.48883	-65.27235	18.59989	561.29712	-90.90339	7.55167	520.53583	806.98425	156.40103	518.85193	784.94403	
6148	61.470	-261.27606	16.22735	144.50371	265.21024	27.07935	22.40700	-198.85248	-2.96869	605.68060	337.19916	39.99026	568.99579	-50.08571	819.28656	-86.51434	-133.76743	555.17493	-66.98460	16.74012	560.37128	-91.95215	4.61127	521.25323	804.82214	154.18401	519.13507	783.21210	
6149	61.480	-261.81833	15.56679	144.22592	266.23148	27.52121	22.60154	-198.89586	-2.82088	605.59558	340.79358	53.05981	559.89496	-52.02823	818.55408	-88.41576	-135.59799	554.20758	-68.48509	15.08491	559.21356	-93.41179	2.55753	521.96686	804.19513	152.75940	520.00433	782.49176	
6150	61.490	-261.90677	15.42421	143.86771	265.99384	27.64929	22.57787	-199.48779	-2.96452	605.63129	338.14368	66.65314	553.00549	-53.75205	817.01208	-90.38223	-137.03644	554.01526	-70.05112	13.56236	559.09680	-95.34643	1.33626	521.76855	802.30524	150.07756	519.87561	780.70001	
6151	61.500	-261.85318	15.53646	143.77325	265.54138	27.16904	22.48636	-200.00069	-3.15322	605.40735	335.02887	77.36980	546.54962	-55.23794	815.97968	-92.25773	-138.48288	553.71558	-71.40717	12.03743	558.80560	-96.88147	-0.59431	521.33319	800.92786	148.36963	519.66968	779.51660	
6152	61.510	-261.91403	15.57108	143.76808	265.43097	27.11217	22.36094	-200.30251	-3.28816	605.41101	328.71820	84.49306	545.73792	-56.35371	816.04407	-93.72478	-140.07597	553.52600	-72.78951	10.58617	558.53107	-98.18520	-3.10561	521.86652	799.62964	146.60109	519.42841	778.13446	
6153	61.520	-261.99954	15.52676	143.74550	265.08453	27.19729	22.12915	-200.25708	-3.20026	605.31891	324.02063	92.90090	546.50623	-57.25185	816.47906	-94.95316	-141.40271	553.25256	-74.10243	9.00062	558.36938	-99.25204	-4.65108	522.06458	797.92346	145.29269	519.38953	776.69031	
6154	61.530	-262.14041	15.46193	143.75838	264.82047	27.24411	21.98625	-200.15631	-3.00289	605.24445	322.19684	101.10835	547.62683	-58.19995	816.45386	-95.93768	-142.83710	553.24091	-75.33873	7.87054	558.40576	-100.72656	-5.22767	522.03845	797.58893	144.11974	519.69153	775.62341	
6155	61.540	-262.26770	15.37257	143.73041	264.76785	27.32492	21.99724	-200.24605	-2.86494	605.21942	321.14801	109.52950	546.04779	-59.37271	816.14990	-97.22890	-144.01782	553.07220	-76.56050	6.46441	558.13403	-101.69936	-7.35990	522.15289	796.35468	142.02228	519.79364	774.32196	
6156	61.550	-262.46823	15.20400	143.57515	264.81891	27.36944	22.02308	-200.51244	-2.90909	605.18201	320.74222	116.05352	542.64532	-60.50294	815.96277	-98.34019	-145.01031	552.67474	-77.52798	5.54948	557.72278	-102.76192	-9.33869	522.06403	795.03503	140.54248	519.68451	773.65607	
6157	61.560	-262.62091	15.10014	143.45576	264.87357	27.50401	22.14648	-200.72342	-2.90088	605.11084	318.18936	119.71744	538.96417	-62.18042	815.61938	-99.56393	-145.92804	552.51453	-78.72910	4.75356	557.58215	-103.56235	-9.54278	521.88983	794.01831	139.09869	520.08740	772.86206	
6158	61.570	-262.70547	15.02682	143.37146	264.86420	27.38712	22.05135	-200.90405	-2.85397	605.06702	315.55057	119.57455	536.50476	-63.38177	815.39758	-100.32300	-146.57327	552.38611	-79.44093	3.88521	557.79041	-104.51652	-12.18441	522.52332	793.07269	137.28659	520.32800	771.82062	
6159	61.580	-262.75912	15.12015	143.27632	264.71786	27.39784	21.94440	-201.14093	-2.83560	605.08466	312.01019	117.99508	534.86340	-64.25500	815.44562	-101.30916	-147.62598	552.55170	-80.45243	2.86754	557.78491	-104.72347	-12.71971	522.62573	793.11346	136.47562	520.55194	771.18896	
6160	61.590	-262.81589	15.31356	143.15535	264.92685	27.97488	21.58077	-201.22638	-2.83347	605.06403	308.62900	115.81045	533.10120	-65.05682	815.79108	-101.93329	-148.47354	552.81860	-81.15847	2.17240	558.09796	-105.47924	-13.69370	522.26123	791.33551	135.36615	520.68164	770.32526	
6161	61.600	-262.88608	15.41634	143.07610	264.85373	28.03765	21.50480	-201.21098	-2.80979	605.02411	305.13828	115.27360	531.22266	-65.81055	816.31158	-102.58541	-149.37154	552.95172	-81.93952	1.12065	558.44299	-106.77821	-14.60192	522.43866	791.35535	134.57690	520.51740	769.67371	
6162	61.610	-262.97812	15.42610	142.99922	264.71286	28.09878	21.44430	-201.22136	-2.77221	605.00183	302.43115	114.87988	529.46271	-66.36652	816.65021	-103.09219	-150.12970	553.19257	-82.47952	0.39624	558.61615	-107.29531	-15.49968	522.80621	790.61023	134.19276	520.51312	769.27686	
6163	61.620	-263.04260	15.40219	143.00912	264.62158	28.14931	21.39129	-201.27118	-2.72370	605.01813	300.54993	115.03658	527.60486	-67.28233	816.77643	-103.61753	-150.88513	553.27051	-83.15898	-0.42367	558.81592	-108.09582	-16.34793	522.81415	789.96332	133.59666	520.33282	767.89429	
6164	61.630	-263.06256	15.34176	142.94722	264.57663	28.22489	21.35403	-201.25235	-2.59237	604.95233	298.60370	115.19256	526.09827	-68.29221	816.83081	-104.15225	-151.48834	553.39734	-83.72765	-0.96890	558.93365	-108.57230	-17.02327	523.01239	789.70685	132.39409	520.93402	767.92682	
